STARTFONT 2.1
FONT -sun-helmet-medium-r-normal--17-170-75-75-p-92-adobe-fontspecific
SIZE 17 75 75
FONTBOUNDINGBOX 20 20 -3 -4

STARTPROPERTIES 28
FOUNDRY "sun"
FAMILY_NAME "helmet"
WEIGHT_NAME "medium"
SLANT "r"
SETWIDTH_NAME "normal"
ADD_STYLE_NAME ""
PIXEL_SIZE 18
POINT_SIZE 170
RESOLUTION_X 75
RESOLUTION_Y 75
SPACING "p"
AVERAGE_WIDTH 92
CHARSET_REGISTRY "adobe"
CHARSET_ENCODING "fontspecific"
COPYRIGHT "© 1999 Sun Microsystems, Inc."
RAW_PIXELSIZE 1000
RAW_POINTSIZE 964
RAW_ASCENT 893
RAW_DESCENT 216
RAW_AVERAGE_WIDTH 5207
FACE_NAME "HelmetNormalalic5"
_XMBDFED_INFO "Edited with xmbdfed 2.4."
WEIGHT 10
X_HEIGHT -1
QUAD_WIDTH 9
DEFAULT_CHAR 4
FONT_DESCENT 4
FONT_ASCENT 16
ENDPROPERTIES

CHARS 203

STARTCHAR char32
ENCODING 32
SWIDTH 25 0
DWIDTH 5 0
BBX 0 0 0 0
BITMAP
ENDCHAR

STARTCHAR char33
ENCODING 33
SWIDTH 25 0
DWIDTH 5 0
BBX 2 12 2 0
BITMAP
C0
C0
C0
C0
C0
C0
C0
C0
C0
00
00
C0
ENDCHAR

STARTCHAR char34
ENCODING 34
SWIDTH 35 0
DWIDTH 7 0
BBX 5 4 1 8
BITMAP
D8
48
D0
90
ENDCHAR

STARTCHAR char35
ENCODING 35
SWIDTH 45 0
DWIDTH 9 0
BBX 9 13 0 0
BITMAP
1300
1200
1200
1200
FF80
3200
2200
2600
FF00
2400
2400
6400
6400
ENDCHAR

STARTCHAR char36
ENCODING 36
SWIDTH 4 0
DWIDTH 11 0
BBX 10 16 0 -2
BITMAP
0C00
1E00
7F80
E580
C4C0
CC00
7C00
3F00
0780
04C0
C4C0
C4C0
7780
7F00
0400
0400
ENDCHAR

STARTCHAR char37
ENCODING 37
SWIDTH 24 0
DWIDTH 15 0
BBX 15 13 -1 0
BITMAP
1000
7840
CC40
CC80
CC80
CCB8
CD2C
7946
0266
0266
0466
046E
043C
ENDCHAR

STARTCHAR char38
ENCODING 38
SWIDTH 50 0
DWIDTH 10 0
BBX 10 12 0 0
BITMAP
3C00
2600
2600
2600
3C00
3800
6900
CF00
C700
C700
6780
3C80
ENDCHAR

STARTCHAR char39
ENCODING 39
SWIDTH 20 0
DWIDTH 4 0
BBX 2 4 1 9
BITMAP
40
40
80
C0
ENDCHAR

STARTCHAR char40
ENCODING 40
SWIDTH 30 0
DWIDTH 6 0
BBX 4 15 1 -3
BITMAP
30
20
60
40
C0
C0
C0
C0
C0
C0
40
60
60
20
10
ENDCHAR

STARTCHAR char41
ENCODING 41
SWIDTH 30 0
DWIDTH 6 0
BBX 4 15 0 -3
BITMAP
40
40
60
20
30
30
30
30
30
30
20
20
60
40
80
ENDCHAR

STARTCHAR char42
ENCODING 42
SWIDTH 30 0
DWIDTH 6 0
BBX 6 5 0 7
BITMAP
30
F8
30
78
48
ENDCHAR

STARTCHAR char43
ENCODING 43
SWIDTH 9 0
DWIDTH 12 0
BBX 10 10 0 0
BITMAP
0C00
0C00
0C00
0C00
FFC0
0C00
0C00
0C00
0C00
0C00
ENDCHAR

STARTCHAR char44
ENCODING 44
SWIDTH 20 0
DWIDTH 4 0
BBX 2 5 1 -3
BITMAP
80
C0
C0
C0
80
ENDCHAR

STARTCHAR char45
ENCODING 45
SWIDTH 35 0
DWIDTH 7 0
BBX 5 1 1 4
BITMAP
F8
ENDCHAR

STARTCHAR char46
ENCODING 46
SWIDTH 20 0
DWIDTH 4 0
BBX 2 1 1 0
BITMAP
C0
ENDCHAR

STARTCHAR char47
ENCODING 47
SWIDTH 35 0
DWIDTH 7 0
BBX 6 12 0 0
BITMAP
0C
08
18
10
10
30
20
60
40
40
C0
80
ENDCHAR

STARTCHAR char48
ENCODING 48
SWIDTH 50 0
DWIDTH 10 0
BBX 9 12 0 0
BITMAP
3E00
6300
C380
C180
C180
C180
C180
C180
C180
6300
6300
3E00
ENDCHAR

STARTCHAR char49
ENCODING 49
SWIDTH 50 0
DWIDTH 10 0
BBX 4 12 2 0
BITMAP
30
70
F0
30
30
30
30
30
30
30
30
30
ENDCHAR

STARTCHAR char50
ENCODING 50
SWIDTH 50 0
DWIDTH 10 0
BBX 9 13 0 -1
BITMAP
3E00
6300
C180
C180
0380
0700
0E00
3800
7000
6000
C000
FF80
8000
ENDCHAR

STARTCHAR char51
ENCODING 51
SWIDTH 50 0
DWIDTH 10 0
BBX 8 12 0 0
BITMAP
3C
63
43
03
06
0C
07
03
C3
C3
66
3C
ENDCHAR

STARTCHAR char52
ENCODING 52
SWIDTH 50 0
DWIDTH 10 0
BBX 9 13 0 0
BITMAP
0600
0600
0E00
1E00
1E00
3600
6600
6600
C600
FF80
0600
0600
0600
ENDCHAR

STARTCHAR char53
ENCODING 53
SWIDTH 50 0
DWIDTH 10 0
BBX 8 12 1 0
BITMAP
FE
C0
C0
80
BC
C6
03
03
83
87
C6
7C
ENDCHAR

STARTCHAR char54
ENCODING 54
SWIDTH 50 0
DWIDTH 10 0
BBX 9 12 0 0
BITMAP
1E00
6300
6180
C000
DE00
F300
E180
C180
C180
6180
7300
3E00
ENDCHAR

STARTCHAR char55
ENCODING 55
SWIDTH 50 0
DWIDTH 10 0
BBX 8 12 1 0
BITMAP
FF
06
04
08
18
10
30
30
20
60
60
60
ENDCHAR

STARTCHAR char56
ENCODING 56
SWIDTH 50 0
DWIDTH 10 0
BBX 9 12 0 0
BITMAP
1C00
6300
6300
6300
2600
3E00
6300
C180
C180
C100
6300
1C00
ENDCHAR

STARTCHAR char57
ENCODING 57
SWIDTH 50 0
DWIDTH 10 0
BBX 9 12 0 0
BITMAP
3E00
6300
C380
C180
C380
6380
3D80
0180
0180
C300
6700
3C00
ENDCHAR

STARTCHAR char58
ENCODING 58
SWIDTH 25 0
DWIDTH 5 0
BBX 2 9 2 0
BITMAP
C0
00
00
00
00
00
00
00
C0
ENDCHAR

STARTCHAR char59
ENCODING 59
SWIDTH 25 0
DWIDTH 5 0
BBX 2 11 2 -2
BITMAP
C0
00
00
00
00
00
00
80
C0
40
80
ENDCHAR

STARTCHAR char60
ENCODING 60
SWIDTH 50 0
DWIDTH 10 0
BBX 9 9 0 0
BITMAP
0080
0300
1C00
7000
C000
7000
1C00
0300
0080
ENDCHAR

STARTCHAR char61
ENCODING 61
SWIDTH 9 0
DWIDTH 12 0
BBX 12 4 -1 3
BITMAP
FFF0
0000
0000
FFF0
ENDCHAR

STARTCHAR char62
ENCODING 62
SWIDTH 50 0
DWIDTH 10 0
BBX 9 9 0 0
BITMAP
C000
7000
1C00
0300
0080
0300
1C00
7000
C000
ENDCHAR

STARTCHAR char63
ENCODING 63
SWIDTH 45 0
DWIDTH 9 0
BBX 8 12 0 0
BITMAP
3C
63
43
C3
02
06
0C
18
18
00
00
18
ENDCHAR

STARTCHAR char64
ENCODING 64
SWIDTH 44 0
DWIDTH 19 0
BBX 14 13 2 0
BITMAP
07C0
1860
3018
67A8
4CCC
D84C
D84C
D8C8
D990
6EE0
3018
1830
0FC0
ENDCHAR

STARTCHAR char65
ENCODING 65
SWIDTH 4 0
DWIDTH 11 0
BBX 11 12 -1 0
BITMAP
0600
0E00
0B00
1900
1900
1180
3080
3FC0
60C0
6040
6060
4060
ENDCHAR

STARTCHAR char66
ENCODING 66
SWIDTH 4 0
DWIDTH 11 0
BBX 10 12 0 0
BITMAP
FF00
C180
C0C0
C0C0
C180
FF00
C1C0
C0C0
C0C0
C0C0
C180
FF00
ENDCHAR

STARTCHAR char67
ENCODING 67
SWIDTH 9 0
DWIDTH 12 0
BBX 11 12 0 0
BITMAP
3F00
70C0
6060
C000
C000
C000
C000
C060
C060
60C0
3180
1F00
ENDCHAR

STARTCHAR char68
ENCODING 68
SWIDTH 9 0
DWIDTH 12 0
BBX 11 12 0 0
BITMAP
FF00
C1C0
C0C0
C060
C060
C060
C060
C060
C0E0
C1C0
C380
FF00
ENDCHAR

STARTCHAR char69
ENCODING 69
SWIDTH 4 0
DWIDTH 11 0
BBX 9 12 1 0
BITMAP
FF00
C000
C000
C000
C000
FF00
C000
C000
C000
C000
C000
FF80
ENDCHAR

STARTCHAR char70
ENCODING 70
SWIDTH 50 0
DWIDTH 10 0
BBX 8 12 1 0
BITMAP
FF
C0
C0
C0
C0
FE
C0
C0
C0
C0
C0
C0
ENDCHAR

STARTCHAR char71
ENCODING 71
SWIDTH 14 0
DWIDTH 13 0
BBX 11 12 0 0
BITMAP
3F00
60C0
6060
C000
C000
C000
C3E0
C060
C060
60E0
31E0
1F60
ENDCHAR

STARTCHAR char72
ENCODING 72
SWIDTH 9 0
DWIDTH 12 0
BBX 10 12 0 0
BITMAP
C0C0
C0C0
C0C0
C0C0
C0C0
FFC0
C0C0
C0C0
C0C0
C0C0
C0C0
C0C0
ENDCHAR

STARTCHAR char73
ENCODING 73
SWIDTH 20 0
DWIDTH 4 0
BBX 2 12 1 0
BITMAP
C0
C0
C0
C0
C0
C0
C0
C0
C0
C0
C0
C0
ENDCHAR

STARTCHAR char74
ENCODING 74
SWIDTH 40 0
DWIDTH 8 0
BBX 7 12 0 0
BITMAP
06
06
06
06
06
06
06
06
C6
C6
4E
3C
ENDCHAR

STARTCHAR char75
ENCODING 75
SWIDTH 4 0
DWIDTH 11 0
BBX 11 12 0 0
BITMAP
C0C0
C180
C700
CE00
DC00
FC00
F600
C300
C300
C180
C0C0
C060
ENDCHAR

STARTCHAR char76
ENCODING 76
SWIDTH 50 0
DWIDTH 10 0
BBX 8 12 1 0
BITMAP
C0
C0
C0
C0
C0
C0
C0
C0
C0
C0
C0
FF
ENDCHAR

STARTCHAR char77
ENCODING 77
SWIDTH 19 0
DWIDTH 14 0
BBX 13 12 0 0
BITMAP
E038
E038
F078
F078
D0D8
D8D8
C898
CD98
CD18
C518
C718
C218
ENDCHAR

STARTCHAR char78
ENCODING 78
SWIDTH 9 0
DWIDTH 12 0
BBX 11 12 0 0
BITMAP
E060
E060
F060
D860
C860
CC60
C660
C260
C360
C1E0
C0E0
C0E0
ENDCHAR

STARTCHAR char79
ENCODING 79
SWIDTH 14 0
DWIDTH 13 0
BBX 12 12 0 0
BITMAP
3FC0
70E0
6060
C030
C030
C030
C030
C030
C070
6060
3CC0
1F80
ENDCHAR

STARTCHAR char80
ENCODING 80
SWIDTH 50 0
DWIDTH 10 0
BBX 9 12 1 0
BITMAP
FE00
C300
C180
C180
C180
C700
FE00
C000
C000
C000
C000
C000
ENDCHAR

STARTCHAR char81
ENCODING 81
SWIDTH 14 0
DWIDTH 13 0
BBX 12 13 0 -1
BITMAP
3F80
70E0
6060
C030
C030
C030
C030
C030
C170
61E0
31C0
1F60
0020
ENDCHAR

STARTCHAR char82
ENCODING 82
SWIDTH 4 0
DWIDTH 11 0
BBX 10 12 0 0
BITMAP
FF00
C180
C0C0
C0C0
C0C0
C380
FF00
C180
C0C0
C0C0
C0C0
C0C0
ENDCHAR

STARTCHAR char83
ENCODING 83
SWIDTH 9 0
DWIDTH 12 0
BBX 11 12 0 0
BITMAP
1F00
21C0
60C0
6000
3800
1F00
03C0
00E0
E060
6060
31C0
1F80
ENDCHAR

STARTCHAR char84
ENCODING 84
SWIDTH 50 0
DWIDTH 10 0
BBX 10 12 -1 0
BITMAP
FFC0
0C00
0C00
0C00
0C00
0C00
0C00
0C00
0C00
0C00
0C00
0C00
ENDCHAR

STARTCHAR char85
ENCODING 85
SWIDTH 9 0
DWIDTH 12 0
BBX 10 12 0 0
BITMAP
C0C0
C0C0
C0C0
C0C0
C0C0
C0C0
C0C0
C0C0
C0C0
C0C0
7180
3F00
ENDCHAR

STARTCHAR char86
ENCODING 86
SWIDTH 4 0
DWIDTH 11 0
BBX 11 12 -1 0
BITMAP
4060
6060
60C0
30C0
3080
3180
1180
1900
1B00
0B00
0E00
0600
ENDCHAR

STARTCHAR char87
ENCODING 87
SWIDTH 29 0
DWIDTH 16 0
BBX 15 12 -1 0
BITMAP
C382
C386
4286
62C6
66C4
264C
244C
3468
3C68
1C38
1838
1830
ENDCHAR

STARTCHAR char88
ENCODING 88
SWIDTH 4 0
DWIDTH 11 0
BBX 11 12 -1 0
BITMAP
60C0
30C0
3180
1B00
0E00
0E00
0E00
1B00
3980
3180
60C0
6060
ENDCHAR

STARTCHAR char89
ENCODING 89
SWIDTH 4 0
DWIDTH 11 0
BBX 11 12 -1 0
BITMAP
6060
60E0
30C0
1980
1B80
0F00
0600
0600
0600
0600
0600
0600
ENDCHAR

STARTCHAR char90
ENCODING 90
SWIDTH 50 0
DWIDTH 10 0
BBX 9 12 0 0
BITMAP
FF80
0180
0300
0600
0C00
1C00
1800
3000
6000
E000
C000
FF80
ENDCHAR

STARTCHAR char91
ENCODING 91
SWIDTH 30 0
DWIDTH 6 0
BBX 3 15 2 -3
BITMAP
E0
C0
C0
C0
C0
C0
C0
C0
C0
C0
C0
C0
C0
C0
E0
ENDCHAR

STARTCHAR char92
ENCODING 92
SWIDTH 25 0
DWIDTH 5 0
BBX 5 13 0 0
BITMAP
80
80
40
40
40
60
20
20
30
10
10
18
08
ENDCHAR

STARTCHAR char93
ENCODING 93
SWIDTH 30 0
DWIDTH 6 0
BBX 4 15 0 -3
BITMAP
F0
30
30
30
30
30
30
30
30
30
30
30
30
30
F0
ENDCHAR

STARTCHAR char94
ENCODING 94
SWIDTH 0 0
DWIDTH 0 0
BBX 6 2 -3 13
BITMAP
70
48
ENDCHAR

STARTCHAR char95
ENCODING 95
SWIDTH 4 0
DWIDTH 11 0
BBX 10 1 0 -2
BITMAP
FFC0
ENDCHAR

STARTCHAR char96
ENCODING 96
SWIDTH 0 0
DWIDTH 0 0
BBX 3 1 -2 10
BITMAP
40
ENDCHAR

STARTCHAR char97
ENCODING 97
SWIDTH 50 0
DWIDTH 10 0
BBX 8 9 0 0
BITMAP
3E
43
43
0F
7F
C3
C3
C7
79
ENDCHAR

STARTCHAR char98
ENCODING 98
SWIDTH 50 0
DWIDTH 10 0
BBX 9 12 0 0
BITMAP
C000
C000
C000
DE00
F300
E180
C180
C180
C180
E180
F300
DE00
ENDCHAR

STARTCHAR char99
ENCODING 99
SWIDTH 50 0
DWIDTH 10 0
BBX 8 9 0 0
BITMAP
3E
63
C1
C0
C0
C0
C1
63
3E
ENDCHAR

STARTCHAR char100
ENCODING 100
SWIDTH 50 0
DWIDTH 10 0
BBX 9 12 0 0
BITMAP
0180
0180
0180
3D80
6380
C180
C180
C180
C180
C380
6380
3D80
ENDCHAR

STARTCHAR char101
ENCODING 101
SWIDTH 50 0
DWIDTH 10 0
BBX 8 9 0 0
BITMAP
3E
63
C3
C1
FF
C0
C3
63
3C
ENDCHAR

STARTCHAR char102
ENCODING 102
SWIDTH 25 0
DWIDTH 5 0
BBX 4 12 0 0
BITMAP
70
60
60
F0
60
60
60
60
60
60
60
60
ENDCHAR

STARTCHAR char103
ENCODING 103
SWIDTH 50 0
DWIDTH 10 0
BBX 8 12 0 -3
BITMAP
3F
67
C3
C3
C3
C3
63
3F
03
C3
62
3C
ENDCHAR

STARTCHAR char104
ENCODING 104
SWIDTH 50 0
DWIDTH 10 0
BBX 7 12 1 0
BITMAP
C0
C0
C0
FC
E6
C6
C6
C6
C6
C6
C6
C6
ENDCHAR

STARTCHAR char105
ENCODING 105
SWIDTH 20 0
DWIDTH 4 0
BBX 2 12 1 0
BITMAP
C0
00
00
C0
C0
C0
C0
C0
C0
C0
C0
C0
ENDCHAR

STARTCHAR char106
ENCODING 106
SWIDTH 20 0
DWIDTH 4 0
BBX 4 15 -1 -3
BITMAP
20
00
00
20
30
30
30
30
30
30
30
30
30
F0
E0
ENDCHAR

STARTCHAR char107
ENCODING 107
SWIDTH 45 0
DWIDTH 9 0
BBX 8 12 1 0
BITMAP
C0
C0
C0
C6
CC
D8
F0
F8
CC
CC
C6
C3
ENDCHAR

STARTCHAR char108
ENCODING 108
SWIDTH 20 0
DWIDTH 4 0
BBX 2 12 1 0
BITMAP
C0
C0
C0
C0
C0
C0
C0
C0
C0
C0
C0
C0
ENDCHAR

STARTCHAR char109
ENCODING 109
SWIDTH 19 0
DWIDTH 14 0
BBX 12 9 0 0
BITMAP
DCE0
E730
C610
C610
C630
C630
C630
C630
C230
ENDCHAR

STARTCHAR char110
ENCODING 110
SWIDTH 50 0
DWIDTH 10 0
BBX 7 9 1 0
BITMAP
FC
C6
C6
86
86
86
86
86
86
ENDCHAR

STARTCHAR char111
ENCODING 111
SWIDTH 50 0
DWIDTH 10 0
BBX 9 9 0 0
BITMAP
3E00
6300
C180
C180
C180
C180
C180
6300
3E00
ENDCHAR

STARTCHAR char112
ENCODING 112
SWIDTH 50 0
DWIDTH 10 0
BBX 8 12 1 -3
BITMAP
BC
E6
C3
C3
C3
C3
C3
E6
BC
80
80
80
ENDCHAR

STARTCHAR char113
ENCODING 113
SWIDTH 50 0
DWIDTH 10 0
BBX 9 12 0 -3
BITMAP
3D80
6380
C180
C180
C180
C180
C180
6380
3D80
0180
0180
0180
ENDCHAR

STARTCHAR char114
ENCODING 114
SWIDTH 30 0
DWIDTH 6 0
BBX 5 9 1 0
BITMAP
D8
E0
C0
C0
C0
C0
C0
C0
C0
ENDCHAR

STARTCHAR char115
ENCODING 115
SWIDTH 45 0
DWIDTH 9 0
BBX 8 9 0 0
BITMAP
7C
E6
C3
F0
3E
07
C3
63
3C
ENDCHAR

STARTCHAR char116
ENCODING 116
SWIDTH 25 0
DWIDTH 5 0
BBX 4 12 0 0
BITMAP
60
60
60
F0
60
60
60
60
60
60
60
70
ENDCHAR

STARTCHAR char117
ENCODING 117
SWIDTH 50 0
DWIDTH 10 0
BBX 7 9 1 0
BITMAP
C6
C6
C6
C6
C6
C6
C6
CE
7E
ENDCHAR

STARTCHAR char118
ENCODING 118
SWIDTH 40 0
DWIDTH 8 0
BBX 7 9 0 0
BITMAP
82
C6
C6
44
6C
6C
28
38
38
ENDCHAR

STARTCHAR char119
ENCODING 119
SWIDTH 14 0
DWIDTH 13 0
BBX 13 9 -1 0
BITMAP
C210
4730
6530
6530
2D20
2DE0
38E0
38C0
18C0
ENDCHAR

STARTCHAR char120
ENCODING 120
SWIDTH 45 0
DWIDTH 9 0
BBX 8 9 0 0
BITMAP
C6
66
3C
38
18
3C
64
C6
C3
ENDCHAR

STARTCHAR char121
ENCODING 121
SWIDTH 45 0
DWIDTH 9 0
BBX 8 12 0 -3
BITMAP
83
C3
42
66
66
24
3C
18
18
18
70
60
ENDCHAR

STARTCHAR char122
ENCODING 122
SWIDTH 40 0
DWIDTH 8 0
BBX 7 9 0 0
BITMAP
FE
0C
0C
18
30
30
60
C0
FE
ENDCHAR

STARTCHAR char123
ENCODING 123
SWIDTH 30 0
DWIDTH 6 0
BBX 4 16 1 -3
BITMAP
30
60
60
60
60
60
60
40
80
40
60
60
60
60
60
30
ENDCHAR

STARTCHAR char124
ENCODING 124
SWIDTH 25 0
DWIDTH 5 0
BBX 2 13 1 0
BITMAP
C0
C0
C0
C0
C0
C0
C0
C0
C0
C0
C0
C0
C0
ENDCHAR

STARTCHAR char125
ENCODING 125
SWIDTH 30 0
DWIDTH 6 0
BBX 4 16 1 -3
BITMAP
C0
60
60
60
60
60
60
20
10
20
60
60
60
60
60
C0
ENDCHAR

STARTCHAR char126
ENCODING 126
SWIDTH 0 0
DWIDTH 0 0
BBX 6 2 -3 13
BITMAP
FC
98
ENDCHAR

STARTCHAR char128
ENCODING 128
SWIDTH 50 0
DWIDTH 10 0
BBX 10 13 0 0
BITMAP
0FC0
1880
3000
2000
6000
FF80
6000
FF00
6000
2000
3000
1880
0F80
ENDCHAR

STARTCHAR char130
ENCODING 130
SWIDTH 20 0
DWIDTH 4 0
BBX 2 5 1 -3
BITMAP
80
C0
40
C0
80
ENDCHAR

STARTCHAR char131
ENCODING 131
SWIDTH 0 0
DWIDTH 0 0
BBX 6 2 -3 13
BITMAP
70
48
ENDCHAR

STARTCHAR char132
ENCODING 132
SWIDTH 35 0
DWIDTH 7 0
BBX 5 4 1 -3
BITMAP
D8
48
98
90
ENDCHAR

STARTCHAR char133
ENCODING 133
SWIDTH 44 0
DWIDTH 19 0
BBX 14 1 2 0
BITMAP
C30C
ENDCHAR

STARTCHAR char134
ENCODING 134
SWIDTH 45 0
DWIDTH 9 0
BBX 8 14 0 -2
BITMAP
18
18
18
FF
18
18
18
18
18
18
18
18
18
18
ENDCHAR

STARTCHAR char136
ENCODING 136
SWIDTH 0 0
DWIDTH 0 0
BBX 5 2 -3 10
BITMAP
30
58
ENDCHAR

STARTCHAR char138
ENCODING 138
SWIDTH 39 0
DWIDTH 18 0
BBX 0 0 0 0
BITMAP
ENDCHAR

STARTCHAR char139
ENCODING 139
SWIDTH 30 0
DWIDTH 6 0
BBX 2 6 2 2
BITMAP
40
40
80
80
C0
40
ENDCHAR

STARTCHAR char140
ENCODING 140
SWIDTH 44 0
DWIDTH 19 0
BBX 18 12 -1 0
BITMAP
1FFFC0
70E000
606000
E06000
C06000
C07FC0
C06000
C06000
606000
706000
38FFC0
1FFFC0
ENDCHAR

STARTCHAR char141
ENCODING 141
SWIDTH 39 0
DWIDTH 18 0
BBX 0 0 0 0
BITMAP
ENDCHAR

STARTCHAR char145
ENCODING 145
SWIDTH 20 0
DWIDTH 4 0
BBX 2 3 1 9
BITMAP
40
80
C0
ENDCHAR

STARTCHAR char146
ENCODING 146
SWIDTH 20 0
DWIDTH 4 0
BBX 2 4 1 8
BITMAP
C0
40
C0
80
ENDCHAR

STARTCHAR char147
ENCODING 147
SWIDTH 35 0
DWIDTH 7 0
BBX 5 4 1 8
BITMAP
48
90
D8
C0
ENDCHAR

STARTCHAR char148
ENCODING 148
SWIDTH 35 0
DWIDTH 7 0
BBX 5 4 1 8
BITMAP
D8
48
D0
90
ENDCHAR

STARTCHAR char149
ENCODING 149
SWIDTH 30 0
DWIDTH 6 0
BBX 5 5 0 4
BITMAP
70
F8
F8
F8
70
ENDCHAR

STARTCHAR char150
ENCODING 150
SWIDTH 50 0
DWIDTH 10 0
BBX 9 1 0 4
BITMAP
FF80
ENDCHAR

STARTCHAR char151
ENCODING 151
SWIDTH 9 0
DWIDTH 12 0
BBX 12 1 -1 5
BITMAP
FFF0
ENDCHAR

STARTCHAR char152
ENCODING 152
SWIDTH 0 0
DWIDTH 0 0
BBX 6 2 -3 10
BITMAP
7C
D8
ENDCHAR

STARTCHAR char153
ENCODING 153
SWIDTH 29 0
DWIDTH 16 0
BBX 14 6 0 5
BITMAP
FD0C
A114
6194
61AC
616C
735C
ENDCHAR

STARTCHAR char155
ENCODING 155
SWIDTH 30 0
DWIDTH 6 0
BBX 2 6 2 2
BITMAP
80
80
40
40
C0
80
ENDCHAR

STARTCHAR char156
ENCODING 156
SWIDTH 29 0
DWIDTH 16 0
BBX 15 9 0 0
BITMAP
3CF8
678C
C304
C306
C3FE
C300
C304
678C
3CF8
ENDCHAR

STARTCHAR char157
ENCODING 157
SWIDTH 39 0
DWIDTH 18 0
BBX 0 0 0 0
BITMAP
ENDCHAR

STARTCHAR char159
ENCODING 159
SWIDTH 4 0
DWIDTH 11 0
BBX 11 15 -1 0
BITMAP
1900
0300
0000
6060
60C0
30C0
1980
1B00
0F00
0600
0600
0600
0600
0600
0600
ENDCHAR

STARTCHAR char160
ENCODING 160
SWIDTH 25 0
DWIDTH 5 0
BBX 0 0 0 0
BITMAP
ENDCHAR

STARTCHAR char161
ENCODING 161
SWIDTH 25 0
DWIDTH 5 0
BBX 2 12 1 0
BITMAP
C0
00
00
C0
C0
C0
C0
C0
C0
C0
C0
C0
ENDCHAR

STARTCHAR char162
ENCODING 162
SWIDTH 50 0
DWIDTH 10 0
BBX 8 13 0 -2
BITMAP
18
18
3E
7B
D9
D8
D0
D0
D1
77
3E
18
18
ENDCHAR

STARTCHAR char163
ENCODING 163
SWIDTH 50 0
DWIDTH 10 0
BBX 10 12 0 0
BITMAP
1E00
6180
C180
C080
6000
FC00
3C00
3000
3000
6000
7CC0
CF80
ENDCHAR

STARTCHAR char164
ENCODING 164
SWIDTH 0 0
DWIDTH 0 0
BBX 3 2 -1 13
BITMAP
40
80
ENDCHAR

STARTCHAR char165
ENCODING 165
SWIDTH 0 0
DWIDTH 0 0
BBX 5 2 -3 14
BITMAP
08
70
ENDCHAR

STARTCHAR char166
ENCODING 166
SWIDTH 39 0
DWIDTH 18 0
BBX 0 0 0 0
BITMAP
ENDCHAR

STARTCHAR char167
ENCODING 167
SWIDTH 50 0
DWIDTH 10 0
BBX 9 15 0 -3
BITMAP
3E00
6300
6000
7000
7C00
CE00
C700
C180
7180
3B00
0E00
0600
6300
6700
3C00
ENDCHAR

STARTCHAR char168
ENCODING 168
SWIDTH 0 0
DWIDTH 0 0
BBX 5 1 -3 10
BITMAP
D8
ENDCHAR

STARTCHAR char169
ENCODING 169
SWIDTH 19 0
DWIDTH 14 0
BBX 13 12 0 0
BITMAP
0F00
10C0
2020
47B0
C890
D818
D818
D818
4890
4720
3040
0F80
ENDCHAR

STARTCHAR char170
ENCODING 170
SWIDTH 0 0
DWIDTH 0 0
BBX 4 2 -2 13
BITMAP
F0
30
ENDCHAR

STARTCHAR char171
ENCODING 171
SWIDTH 35 0
DWIDTH 7 0
BBX 6 6 0 2
BITMAP
24
64
D8
90
6C
24
ENDCHAR

STARTCHAR char172
ENCODING 172
SWIDTH 14 0
DWIDTH 13 0
BBX 12 5 0 0
BITMAP
FFF0
0030
0030
0030
0030
ENDCHAR

STARTCHAR char174
ENCODING 174
SWIDTH 19 0
DWIDTH 14 0
BBX 12 12 0 0
BITMAP
0F00
10C0
2040
4F20
CD90
C990
CE10
CF10
4D90
5DE0
2040
1F80
ENDCHAR

STARTCHAR char176
ENCODING 176
SWIDTH 25 0
DWIDTH 5 0
BBX 6 6 -1 6
BITMAP
30
48
CC
CC
48
30
ENDCHAR

STARTCHAR char177
ENCODING 177
SWIDTH 50 0
DWIDTH 10 0
BBX 9 11 0 0
BITMAP
1800
1800
1800
1800
FF80
1800
1800
1800
1800
0000
FF80
ENDCHAR

STARTCHAR char179
ENCODING 179
SWIDTH 39 0
DWIDTH 18 0
BBX 0 0 0 0
BITMAP
ENDCHAR

STARTCHAR char180
ENCODING 180
SWIDTH 0 0
DWIDTH 0 0
BBX 3 2 -1 9
BITMAP
40
80
ENDCHAR

STARTCHAR char182
ENCODING 182
SWIDTH 14 0
DWIDTH 13 0
BBX 8 15 2 -3
BITMAP
7F
F6
F6
F6
F6
76
36
36
36
36
36
36
36
36
36
ENDCHAR

STARTCHAR char183
ENCODING 183
SWIDTH 15 0
DWIDTH 3 0
BBX 2 2 1 4
BITMAP
C0
C0
ENDCHAR

STARTCHAR char184
ENCODING 184
SWIDTH 0 0
DWIDTH 0 0
BBX 2 3 -1 -4
BITMAP
C0
40
80
ENDCHAR

STARTCHAR char185
ENCODING 185
SWIDTH 39 0
DWIDTH 18 0
BBX 0 0 0 0
BITMAP
ENDCHAR

STARTCHAR char186
ENCODING 186
SWIDTH 0 0
DWIDTH 0 0
BBX 6 2 -3 13
BITMAP
FC
98
ENDCHAR

STARTCHAR char187
ENCODING 187
SWIDTH 35 0
DWIDTH 7 0
BBX 6 6 0 2
BITMAP
90
D8
6C
24
CC
90
ENDCHAR

STARTCHAR char189
ENCODING 189
SWIDTH 39 0
DWIDTH 18 0
BBX 0 0 0 0
BITMAP
ENDCHAR

STARTCHAR char191
ENCODING 191
SWIDTH 45 0
DWIDTH 9 0
BBX 8 12 0 0
BITMAP
18
00
18
18
18
30
60
C0
C3
C3
66
3C
ENDCHAR

STARTCHAR char192
ENCODING 192
SWIDTH 4 0
DWIDTH 11 0
BBX 11 15 -1 0
BITMAP
0C00
0000
0000
0E00
0E00
0B00
1900
1980
1180
3080
3FC0
60C0
6040
6060
4060
ENDCHAR

STARTCHAR char193
ENCODING 193
SWIDTH 4 0
DWIDTH 11 0
BBX 11 15 -1 0
BITMAP
0600
0400
0000
0E00
0E00
0B00
1900
1980
1180
3080
3FC0
60C0
6040
6060
4060
ENDCHAR

STARTCHAR char194
ENCODING 194
SWIDTH 4 0
DWIDTH 11 0
BBX 11 15 -1 0
BITMAP
0E00
1B00
0000
0E00
0E00
0B00
1900
1980
1180
3080
3FC0
60C0
6040
6060
4060
ENDCHAR

STARTCHAR char195
ENCODING 195
SWIDTH 4 0
DWIDTH 11 0
BBX 11 15 -1 0
BITMAP
1D80
3300
0000
0E00
0E00
0B00
1900
1980
1180
3080
3FC0
60C0
6040
6060
4060
ENDCHAR

STARTCHAR char196
ENCODING 196
SWIDTH 4 0
DWIDTH 11 0
BBX 11 15 -1 0
BITMAP
1B00
0000
0000
0E00
0E00
0A00
1B00
1100
3180
3180
3F80
60C0
6040
6060
4060
ENDCHAR

STARTCHAR char197
ENCODING 197
SWIDTH 4 0
DWIDTH 11 0
BBX 11 16 -1 0
BITMAP
0700
0B00
0700
0000
0E00
0E00
0A00
1900
1900
1180
3080
3F80
60C0
6040
6060
4060
ENDCHAR

STARTCHAR char198
ENCODING 198
SWIDTH 34 0
DWIDTH 17 0
BBX 16 12 -1 0
BITMAP
0FFF
0980
0980
1980
1180
31FE
3180
3F80
6180
6180
4180
C1FF
ENDCHAR

STARTCHAR char199
ENCODING 199
SWIDTH 9 0
DWIDTH 12 0
BBX 11 16 0 -4
BITMAP
3F00
70C0
6060
C000
C000
C000
C000
C060
C060
60C0
3180
1F00
0000
0C00
0400
0800
ENDCHAR

STARTCHAR char200
ENCODING 200
SWIDTH 4 0
DWIDTH 11 0
BBX 9 15 1 0
BITMAP
3000
0000
0000
FF00
C000
C000
C000
C000
FF00
C000
C000
C000
C000
C000
FF80
ENDCHAR

STARTCHAR char201
ENCODING 201
SWIDTH 4 0
DWIDTH 11 0
BBX 9 15 1 0
BITMAP
1800
1000
0000
FF00
C000
C000
C000
C000
FF00
C000
C000
C000
C000
C000
FF80
ENDCHAR

STARTCHAR char202
ENCODING 202
SWIDTH 4 0
DWIDTH 11 0
BBX 9 15 1 0
BITMAP
3800
2C00
0000
FF00
C000
C000
C000
C000
FF00
C000
C000
C000
C000
C000
FF80
ENDCHAR

STARTCHAR char203
ENCODING 203
SWIDTH 4 0
DWIDTH 11 0
BBX 9 15 1 0
BITMAP
6C00
0C00
0000
FF00
C000
C000
C000
C000
FF00
C000
C000
C000
C000
C000
FF80
ENDCHAR

STARTCHAR char204
ENCODING 204
SWIDTH 20 0
DWIDTH 4 0
BBX 3 15 0 0
BITMAP
40
00
00
60
60
60
60
60
60
60
60
60
60
60
60
ENDCHAR

STARTCHAR char205
ENCODING 205
SWIDTH 20 0
DWIDTH 4 0
BBX 3 15 1 0
BITMAP
C0
80
00
C0
C0
C0
C0
C0
C0
C0
C0
C0
C0
C0
C0
ENDCHAR

STARTCHAR char206
ENCODING 206
SWIDTH 20 0
DWIDTH 4 0
BBX 5 15 -1 0
BITMAP
70
D8
00
30
30
30
30
30
30
30
30
30
30
30
30
ENDCHAR

STARTCHAR char207
ENCODING 207
SWIDTH 20 0
DWIDTH 4 0
BBX 4 15 0 0
BITMAP
90
30
00
60
60
60
60
60
60
60
60
60
60
60
60
ENDCHAR

STARTCHAR char209
ENCODING 209
SWIDTH 9 0
DWIDTH 12 0
BBX 11 15 0 0
BITMAP
3D00
2600
0000
E060
F060
F060
D860
CC60
CC60
C660
C260
C360
C1E0
C0E0
C0E0
ENDCHAR

STARTCHAR char210
ENCODING 210
SWIDTH 14 0
DWIDTH 13 0
BBX 12 15 0 0
BITMAP
0C00
0000
0000
3FC0
70E0
6060
C030
C030
C030
C030
C030
C060
6060
3CC0
1F80
ENDCHAR

STARTCHAR char211
ENCODING 211
SWIDTH 14 0
DWIDTH 13 0
BBX 12 15 0 0
BITMAP
0600
0400
0000
3FC0
70E0
6060
C030
C030
C030
C030
C030
C070
6060
3CC0
1F80
ENDCHAR

STARTCHAR char212
ENCODING 212
SWIDTH 14 0
DWIDTH 13 0
BBX 12 15 0 0
BITMAP
0E00
1B00
0000
3FC0
70E0
6060
C030
C030
C030
C030
C030
C060
6060
3CC0
1F80
ENDCHAR

STARTCHAR char213
ENCODING 213
SWIDTH 14 0
DWIDTH 13 0
BBX 12 15 0 0
BITMAP
1D80
1300
0000
3FC0
70E0
4060
C030
C030
C030
C030
C030
C060
6060
3CC0
1F80
ENDCHAR

STARTCHAR char214
ENCODING 214
SWIDTH 14 0
DWIDTH 13 0
BBX 12 15 0 0
BITMAP
1B00
0000
0000
3FC0
70E0
6060
C030
C030
C030
C030
C030
C070
6060
3CC0
1F80
ENDCHAR

STARTCHAR char216
ENCODING 216
SWIDTH 14 0
DWIDTH 13 0
BBX 12 12 0 0
BITMAP
3F90
70E0
40E0
C130
C130
C230
C430
C830
D060
6060
70C0
9F80
ENDCHAR

STARTCHAR char217
ENCODING 217
SWIDTH 9 0
DWIDTH 12 0
BBX 10 15 0 0
BITMAP
0C00
0000
0000
C0C0
C0C0
C0C0
C0C0
C0C0
C0C0
C0C0
C0C0
C0C0
C0C0
7180
3F00
ENDCHAR

STARTCHAR char218
ENCODING 218
SWIDTH 9 0
DWIDTH 12 0
BBX 10 15 0 0
BITMAP
0400
0400
0000
C0C0
C0C0
C0C0
C0C0
C0C0
C0C0
C0C0
C0C0
C0C0
C0C0
7180
3F00
ENDCHAR

STARTCHAR char219
ENCODING 219
SWIDTH 9 0
DWIDTH 12 0
BBX 10 15 0 0
BITMAP
0E00
1200
0000
C0C0
C0C0
C0C0
C0C0
C0C0
C0C0
C0C0
C0C0
C0C0
C0C0
7180
3F00
ENDCHAR

STARTCHAR char220
ENCODING 220
SWIDTH 9 0
DWIDTH 12 0
BBX 10 15 0 0
BITMAP
1B00
0300
0000
C0C0
C0C0
C0C0
C0C0
C0C0
C0C0
C0C0
C0C0
C0C0
C0C0
7180
3F00
ENDCHAR

STARTCHAR char222
ENCODING 222
SWIDTH 39 0
DWIDTH 18 0
BBX 0 0 0 0
BITMAP
ENDCHAR

STARTCHAR char223
ENCODING 223
SWIDTH 45 0
DWIDTH 9 0
BBX 7 12 1 0
BITMAP
78
C6
C6
C6
F8
EE
C6
C6
C6
C6
CE
FC
ENDCHAR

STARTCHAR char224
ENCODING 224
SWIDTH 50 0
DWIDTH 10 0
BBX 8 11 0 0
BITMAP
10
00
3E
43
43
0F
7F
C3
C3
C7
79
ENDCHAR

STARTCHAR char225
ENCODING 225
SWIDTH 50 0
DWIDTH 10 0
BBX 8 11 0 0
BITMAP
08
10
3E
43
43
0F
7F
C3
C3
C7
79
ENDCHAR

STARTCHAR char226
ENCODING 226
SWIDTH 50 0
DWIDTH 10 0
BBX 8 12 0 0
BITMAP
18
3C
00
3E
43
43
0F
7F
C3
C3
C7
79
ENDCHAR

STARTCHAR char227
ENCODING 227
SWIDTH 50 0
DWIDTH 10 0
BBX 8 12 0 0
BITMAP
3E
6C
00
3E
43
43
0F
7F
C3
C3
C7
79
ENDCHAR

STARTCHAR char228
ENCODING 228
SWIDTH 50 0
DWIDTH 10 0
BBX 9 12 0 0
BITMAP
0600
3600
0000
3C00
4200
4300
0F00
7D00
E300
C300
E700
7980
ENDCHAR

STARTCHAR char229
ENCODING 229
SWIDTH 50 0
DWIDTH 10 0
BBX 9 12 0 0
BITMAP
1C00
1C00
0000
3E00
6300
4300
0F00
7B00
C300
C700
CF00
7B80
ENDCHAR

STARTCHAR char230
ENCODING 230
SWIDTH 29 0
DWIDTH 16 0
BBX 14 9 0 0
BITMAP
39F0
C718
C608
0E0C
7FFC
C600
C70C
CF18
79F0
ENDCHAR

STARTCHAR char231
ENCODING 231
SWIDTH 50 0
DWIDTH 10 0
BBX 8 13 0 -4
BITMAP
3E
63
C1
C0
C0
C0
C1
63
3E
00
18
08
10
ENDCHAR

STARTCHAR char232
ENCODING 232
SWIDTH 50 0
DWIDTH 10 0
BBX 8 11 0 0
BITMAP
10
00
3E
63
C3
C1
FF
C0
C3
63
3C
ENDCHAR

STARTCHAR char233
ENCODING 233
SWIDTH 50 0
DWIDTH 10 0
BBX 8 11 0 0
BITMAP
08
10
3E
63
C3
C1
FF
C0
C3
63
3C
ENDCHAR

STARTCHAR char234
ENCODING 234
SWIDTH 50 0
DWIDTH 10 0
BBX 8 12 0 0
BITMAP
18
3C
00
3E
63
C3
C1
FF
C0
C3
63
3C
ENDCHAR

STARTCHAR char235
ENCODING 235
SWIDTH 50 0
DWIDTH 10 0
BBX 8 11 0 0
BITMAP
2C
00
3E
67
C3
C3
FF
C0
C3
63
3C
ENDCHAR

STARTCHAR char236
ENCODING 236
SWIDTH 20 0
DWIDTH 4 0
BBX 3 11 0 0
BITMAP
40
00
60
60
60
60
60
60
60
60
60
ENDCHAR

STARTCHAR char237
ENCODING 237
SWIDTH 20 0
DWIDTH 4 0
BBX 3 11 1 0
BITMAP
C0
80
C0
C0
C0
C0
C0
C0
C0
C0
C0
ENDCHAR

STARTCHAR char238
ENCODING 238
SWIDTH 20 0
DWIDTH 4 0
BBX 5 12 -1 0
BITMAP
30
58
00
30
30
30
30
30
30
30
30
30
ENDCHAR

STARTCHAR char239
ENCODING 239
SWIDTH 20 0
DWIDTH 4 0
BBX 4 11 0 0
BITMAP
B0
00
60
60
60
60
60
60
60
60
60
ENDCHAR

STARTCHAR char241
ENCODING 241
SWIDTH 50 0
DWIDTH 10 0
BBX 7 12 1 0
BITMAP
7C
58
00
FC
C6
C6
86
86
86
86
86
86
ENDCHAR

STARTCHAR char242
ENCODING 242
SWIDTH 50 0
DWIDTH 10 0
BBX 9 11 0 0
BITMAP
1800
0000
3E00
6300
C180
C180
C180
C180
C180
6300
3E00
ENDCHAR

STARTCHAR char243
ENCODING 243
SWIDTH 50 0
DWIDTH 10 0
BBX 9 11 0 0
BITMAP
0800
1000
3E00
6300
C180
C180
C180
C180
C180
6300
3E00
ENDCHAR

STARTCHAR char244
ENCODING 244
SWIDTH 50 0
DWIDTH 10 0
BBX 9 12 0 0
BITMAP
1800
3400
0000
3E00
6300
C180
C180
C180
C180
C180
6300
3E00
ENDCHAR

STARTCHAR char245
ENCODING 245
SWIDTH 50 0
DWIDTH 10 0
BBX 9 12 0 0
BITMAP
3E00
2C00
0000
3E00
6300
C180
C180
C180
C180
C180
6300
3E00
ENDCHAR

STARTCHAR char246
ENCODING 246
SWIDTH 50 0
DWIDTH 10 0
BBX 9 12 0 0
BITMAP
0600
3600
0000
3E00
6300
C180
C180
C180
C180
E180
7300
3E00
ENDCHAR

STARTCHAR char247
ENCODING 247
SWIDTH 50 0
DWIDTH 10 0
BBX 9 5 0 2
BITMAP
1800
0000
FF80
0000
1800
ENDCHAR

STARTCHAR char248
ENCODING 248
SWIDTH 50 0
DWIDTH 10 0
BBX 9 9 0 0
BITMAP
3C80
6300
C580
C580
C980
D180
E180
6300
9E00
ENDCHAR

STARTCHAR char249
ENCODING 249
SWIDTH 50 0
DWIDTH 10 0
BBX 7 11 1 0
BITMAP
30
00
C6
C6
C6
C6
C6
C6
C6
CE
7E
ENDCHAR

STARTCHAR char250
ENCODING 250
SWIDTH 50 0
DWIDTH 10 0
BBX 7 11 1 0
BITMAP
10
10
C6
C6
C6
C6
C6
C6
C6
CE
7E
ENDCHAR

STARTCHAR char251
ENCODING 251
SWIDTH 50 0
DWIDTH 10 0
BBX 7 12 1 0
BITMAP
30
68
00
C6
C6
C6
C6
C6
C6
C6
CE
7E
ENDCHAR

STARTCHAR char252
ENCODING 252
SWIDTH 50 0
DWIDTH 10 0
BBX 7 12 1 0
BITMAP
0C
2C
00
C2
C2
C2
C2
C2
C6
C6
CE
7A
ENDCHAR

STARTCHAR char255
ENCODING 255
SWIDTH 45 0
DWIDTH 9 0
BBX 8 14 0 -3
BITMAP
6C
00
C3
C3
42
66
64
24
3C
18
18
10
70
60
ENDCHAR
ENDFONT
